<svg id="图层_1" data-name="图层 1"
    xmlns="http://www.w3.org/2000/svg"
    xmlns:xlink="http://www.w3.org/1999/xlink" viewBox="0 0 706.61 684.07">
    <defs>
        <style>
		.uyun-show-cls-1{fill:#fff;}
		.uyun-show-cls-5{fill:#808080;}
		.uyun-show-cls-4{mask:url(#server-001-mask-1);}</style>
        <mask id="server-001-mask-1" x="0" y="0" width="717.66" height="684.14" maskUnits="userSpaceOnUse">
            <g transform="translate(0 0.07)">
                <polygon id="path-2" class="uyun-show-cls-1" points="0 0 0 684.07 717.66 684.07 717.66 0 0 0"/>
            </g>
        </mask>
    </defs>
    <title>server2</title>
    <g id="Page-1">
        <g id="服务器-2">
            <g id="Path">
                <path id="path-1" class="uyun-show-cls-5" fill-opacity="0.1" d="M702.91,139.12c-6-44.48-73.55-72.18-82.12-75.48l-128-52a13.75,13.75,0,0,0-15.86,5.82,13,13,0,0,0,2.32,16.37C501.13,54,508.64,94,508.85,94c0,5.86-1.33,495.71-1.33,508.38,0,35.76-26.18,57.09-27.44,58.08a12.92,12.92,0,0,0-3.55,16.35,13.66,13.66,0,0,0,15.79,6.67c6-1.68,110.47-41.09,120.86-44.5,90.15-29.34,91.14-81.32,91.14-83.5.28-168.69,1.3-260.3,1.89-313.36C707,169.54,707,168.14,702.91,139.12Z" transform="translate(0 0.07)"/>
                <path class="uyun-show-cls-5" opacity="0.5" d="M488.57,684a13.5,13.5,0,0,1-12-7.19,12.94,12.94,0,0,1,3.55-16.35A54.33,54.33,0,0,0,484.9,656a83.38,83.38,0,0,0,9.37-11.54c8.79-13,13.25-27.18,13.25-42.08,0-5.13.19-78.74.66-254.09l.46-174.17c.13-50.25.21-78.71.21-80.13h0l-.74-3.07c-.67-2.75-1.38-5.4-2.17-8.1a154.62,154.62,0,0,0-9.4-24.56c-5.06-10.29-10.88-18.51-17.3-24.42a13.07,13.07,0,0,1-2.32-16.37,13.79,13.79,0,0,1,15.73-5.87l.25.09,127.9,51.94c4.49,1.73,10,4.2,15.6,6.93A210.43,210.43,0,0,1,662.8,85.93c24.08,16.6,37.57,34.5,40.11,53.18,1.52,10.73,2.06,15,2.55,20,1.32,13.68,1.4,22.21.75,83-1,90.93-1.66,171.36-1.89,313.36a26,26,0,0,1-.22,3,50.15,50.15,0,0,1-1.34,6.83A71.61,71.61,0,0,1,692.55,587c-15.12,22.24-41.83,39.72-79.37,51.94-4.24,1.39-18.73,6.75-60.1,22.16-44.71,16.65-58.33,21.66-60.76,22.34A13.74,13.74,0,0,1,488.57,684Zm25-596h1.29v6c0,1.42-.07,29.88-.21,80.14l-.46,174.17c-.47,175.34-.66,249-.66,254.08,0,16.12-4.8,31.41-14.27,45.44a89.34,89.34,0,0,1-10.05,12.37,60.41,60.41,0,0,1-5.43,5,7,7,0,0,0-1.93,8.81,7.53,7.53,0,0,0,6.73,4,7.78,7.78,0,0,0,2.13-.3c2.45-.69,22.21-8,60.25-22.17,42.18-15.71,56-20.82,60.38-22.26,36.26-11.8,61.92-28.49,76.28-49.61a65.63,65.63,0,0,0,9.36-19.9,44,44,0,0,0,1.19-6,20.19,20.19,0,0,0,.17-2.3c.23-142,.87-222.47,1.89-313.42.64-60.47.57-68.94-.73-82.33-.47-4.89-1-9.14-2.52-19.76-2.3-17-14.94-33.48-37.58-49.08a204.4,204.4,0,0,0-25.66-14.92c-7.27-3.58-12.62-5.76-15.15-6.74L490.76,17.3A7.72,7.72,0,0,0,482,20.59a7.06,7.06,0,0,0,1.27,8.85c7,6.4,13.23,15.21,18.61,26.18a160.57,160.57,0,0,1,9.77,25.52C512.36,83.43,513,85.68,513.56,88Z" transform="translate(0 0.07)"/>
            </g>
            <g class="uyun-show-cls-4">
                <path class="uyun-show-cls-5" d="M372.71,684h-281C41.13,684,0,643.94,0,594.69V89.27C0,40,41.13-.07,91.69-.07h281c50.54,0,91.66,40.08,91.66,89.34V594.69C464.38,643.94,423.26,684,372.71,684ZM91.69,11.93C47.75,11.93,12,46.63,12,89.27V594.69C12,637.32,47.75,672,91.69,672h281c43.92,0,79.66-34.68,79.66-77.31V89.27c0-42.65-35.74-77.34-79.66-77.34ZM222.26,585.39c-37.07,0-67.23-29.49-67.23-65.75s30.16-65.81,67.23-65.81,67.3,29.52,67.3,65.81S259.37,585.39,222.26,585.39Zm0-119.56C191.8,465.83,167,490,167,519.64s24.78,53.75,55.23,53.75,55.3-24.11,55.3-53.75S252.75,465.83,222.26,465.83Zm130.8-52.55H111.28c-27.82,0-50.46-23.83-50.46-53.11V250.47H403.45v109.7C403.45,389.45,380.85,413.28,353.06,413.28ZM72.82,262.47v97.7c0,22.67,17.25,41.11,38.46,41.11H353.06c21.17,0,38.39-18.44,38.39-41.11v-97.7ZM403.45,228H60.82V118.24c0-29.29,22.64-53.12,50.46-53.12H353.06c27.79,0,50.39,23.83,50.39,53.12ZM72.82,216H391.45V118.24c0-22.68-17.22-41.12-38.39-41.12H111.28c-21.21,0-38.46,18.45-38.46,41.12Z" transform="translate(0 0.07)"/>
            </g>
        </g>
    </g>
</svg>
